# xmcd CD database file
#
# Track frame offsets:
#	150
#	17830
#	35575
#	54540
#	68650
#	86877
#	102965
#	122575
#	135305
#	153615
#	170313
#	179650
#
# Disc length: 2639 seconds
#
# Revision: 0
# Processed by: cddbd v1.5.2PL0 Copyright (c) Steve Scherf et al.
# Submitted via: CDex 1.51
#
DISCID=9f0a4d0c
DTITLE=Liz Carlisle - The Water Is Wide
DYEAR=2007
DGENRE=Country
TTITLE0=St. Angela
TTITLE1=Drink Up, My Darling
TTITLE2=The Circle Game
TTITLE3=Don't Think Too Hard
TTITLE4=The Water Is Wide
TTITLE5=Blue Are The Heavens
TTITLE6=Montana
TTITLE7=True Love's Hand
TTITLE8=Both Sides Now
TTITLE9=Give Me Your Hand
TTITLE10=Little Sadie
TTITLE11=Waiting
EXTD=YEAR: 2007
EXTT0=
EXTT1=
EXTT2=
EXTT3=
EXTT4=
EXTT5=
EXTT6=
EXTT7=
EXTT8=
EXTT9=
EXTT10=
EXTT11=
PLAYORDER=
